<svg width="48" height="48" viewBox="0 0 48 48" fill="none" xmlns="http://www.w3.org/2000/svg">
<path d="M14.4 25.7L13.1 30.2H15.7L14.4 25.7Z" fill="#252F3E"/>
<path d="M8.5 22.3H10.8V28.8H12L15 22.3H17.5L14.1 29.6L17.7 37H15.2L12.1 30.5H10.8V37H8.5V22.3Z" fill="#252F3E"/>
<path d="M18.7 22.3H21L24.5 32.3L28 22.3H30.3L25.8 37H23.2L18.7 22.3Z" fill="#252F3E"/>
<path d="M31.3 34.5C33 35.8 35.3 36.5 37.3 36.5C40 36.5 41.7 35.1 41.7 33.1C41.7 31.3 40.7 30.3 38 29.6L36.3 29.2C34.5 28.7 33.8 28.2 33.8 27.2C33.8 26 34.9 25.2 36.5 25.2C37.9 25.2 39.3 25.7 40.3 26.4L41.5 24.6C40.2 23.7 38.5 23.1 36.5 23.1C33.7 23.1 31.6 24.7 31.6 27.1C31.6 29 32.7 30 35.3 30.7L37 31.1C38.9 31.6 39.5 32.1 39.5 33C39.5 34.3 38.3 35 36.8 35C35 35 33.3 34.2 32.1 33.2L31.3 34.5Z" fill="#252F3E"/>
<path d="M10.5 39.3C16.2 42.3 23 43 29.5 41.5C30 41.4 30.1 41.9 29.6 42.2C23.5 45.8 14.2 46.3 8.5 42.8C7.9 42.5 8.4 41.9 9 41.6" fill="#FF9900"/>
<path d="M31.5 40.2C32.2 39.4 33.7 39.6 34.8 39.7C35.9 39.9 37.8 40.4 38.3 41.1C38.8 41.8 37.5 42 36.3 42.1C34.7 42.2 32 42.3 31.5 41.6C31 40.9 31.3 40.5 31.5 40.2Z" fill="#FF9900"/>
</svg>
