<svg width="48" height="48" viewBox="0 0 48 48" fill="none" xmlns="http://www.w3.org/2000/svg">
<path d="M36 6H12C8.686 6 6 8.686 6 12V36C6 39.314 8.686 42 12 42H36C39.314 42 42 39.314 42 36V12C42 8.686 39.314 6 36 6Z" fill="#FFFFFF"/>
<path d="M36 6H12C8.686 6 6 8.686 6 12V36C6 39.314 8.686 42 12 42H36C39.314 42 42 39.314 42 36V12C42 8.686 39.314 6 36 6Z" fill="#4285F4" fill-opacity="0.12"/>
<path d="M33 10H15C12.239 10 10 12.239 10 15V33C10 35.761 12.239 38 15 38H33C35.761 38 38 35.761 38 33V15C38 12.239 35.761 10 33 10Z" stroke="#4285F4" stroke-width="2"/>
<path d="M10 18H38" stroke="#4285F4" stroke-width="2"/>
<path d="M18 10V14" stroke="#4285F4" stroke-width="2" stroke-linecap="round"/>
<path d="M30 10V14" stroke="#4285F4" stroke-width="2" stroke-linecap="round"/>
<circle cx="18" cy="24" r="1.5" fill="#EA4335"/>
<circle cx="24" cy="24" r="1.5" fill="#FBBC04"/>
<circle cx="30" cy="24" r="1.5" fill="#34A853"/>
<circle cx="18" cy="30" r="1.5" fill="#4285F4"/>
<circle cx="24" cy="30" r="1.5" fill="#EA4335"/>
<circle cx="30" cy="30" r="1.5" fill="#FBBC04"/>
</svg>
