<svg width="48" height="48" viewBox="0 0 48 48" fill="none" xmlns="http://www.w3.org/2000/svg">
<rect width="48" height="48" rx="12" fill="#0086FF"/>
<path d="M24 10C18 10 14 14.5 14 20C14 22.5 15 24.8 16.5 26.5L14 34L18.5 32C20.2 33 22 33.5 24 33.5C30 33.5 34 29 34 23.5C34 18 30 10 24 10Z" fill="white"/>
<circle cx="20" cy="21" r="2" fill="#0086FF"/>
<circle cx="28" cy="21" r="2" fill="#0086FF"/>
<path d="M20 26C20 26 22 28.5 24 28.5C26 28.5 28 26 28 26" stroke="#0086FF" stroke-width="1.5" stroke-linecap="round"/>
</svg>
