<svg width="48" height="48" viewBox="0 0 48 48" fill="none" xmlns="http://www.w3.org/2000/svg">
<rect width="48" height="48" rx="12" fill="#635BFF"/>
<path d="M22.938 17.455C19.771 17.455 17.5 19.139 17.5 21.95C17.5 26.332 24.3 25.634 24.3 27.524C24.3 28.254 23.635 28.493 22.704 28.493C21.324 28.493 19.565 27.952 18.169 27.222V30.997C19.714 31.634 21.276 31.915 22.704 31.915C25.961 31.915 28.334 30.278 28.334 27.429C28.317 22.7 21.5 23.542 21.5 21.759C21.5 21.14 22.032 20.899 22.938 20.899C24.2 20.899 25.796 21.265 27.059 21.916V18.195C25.68 17.681 24.317 17.455 22.938 17.455Z" fill="white"/>
</svg>
