<svg width="48" height="48" viewBox="0 0 48 48" fill="none" xmlns="http://www.w3.org/2000/svg">
<path d="M24 4C12.954 4 4 12.954 4 24C4 28.125 5.317 31.95 7.575 35.1L5.1 43.5L13.725 41.075C16.75 43.1 20.25 44 24 44C35.046 44 44 35.046 44 24C44 12.954 35.046 4 24 4Z" fill="#25D366"/>
<path d="M34.575 29.7C34.125 28.5 32.85 27.9 31.725 27.45C31.275 27.3 30.825 27.15 30.45 27.375C29.775 27.75 29.25 28.425 28.65 28.725C28.2 28.95 27.675 28.8 27.225 28.575C25.275 27.675 23.625 26.325 22.35 24.675C21.975 24.225 21.975 23.625 22.35 23.175C22.725 22.725 23.1 22.275 23.175 21.675C23.25 21.075 22.95 20.475 22.65 19.95C22.275 19.275 21.825 18.525 21.15 18.15C20.55 17.85 19.8 18 19.275 18.45C18.225 19.35 17.625 20.7 17.7 22.05C17.7 22.575 17.775 23.1 17.925 23.625C18.3 24.825 18.975 25.95 19.725 26.925C20.7 28.2 21.9 29.325 23.25 30.225C24.225 30.825 25.275 31.35 26.4 31.65C27.675 32.025 28.875 32.175 30.075 31.65C31.125 31.125 31.95 30.15 32.175 28.95C32.25 28.5 32.175 28.05 31.95 27.675" fill="white"/>
</svg>
